<svg width="27" height="27" viewBox="0 0 27 27" fill="none" xmlns="http://www.w3.org/2000/svg">
<circle cx="13.1465" cy="13.1465" r="13.1465" fill="white"/>
<circle cx="13.1441" cy="13.1464" r="11.73" fill="#E21280"/>
<path d="M20.2491 16.1228C20.0754 16.7205 19.7233 17.1123 19.2256 17.3971C17.5442 18.3594 15.8671 19.329 14.1898 20.2984C13.5038 20.6948 12.8147 20.6978 12.1322 20.3071C10.4359 19.3359 8.74402 18.357 7.05088 17.3803C6.32909 16.9639 5.99311 16.3448 6.00011 15.5046C6.01599 13.6002 6.0162 11.6954 6.00011 9.79098C5.99281 8.92691 6.35206 8.3083 7.09556 7.88733C7.99977 7.37536 8.89962 6.85562 9.79816 6.33372C10.5196 5.91467 11.2862 5.85532 11.9388 6.35736C12.7903 7.01242 13.5159 7.00258 14.3646 6.35877C15.0437 5.84359 15.8163 5.92534 16.5513 6.35656C17.4171 6.86449 18.2883 7.36333 19.1632 7.85534C19.9416 8.29305 20.3211 8.92948 20.3062 9.84046C20.272 11.9201 20.2744 14.0003 20.2491 16.1228ZM17.1317 10.8547C17.0302 10.8705 16.9288 10.8863 16.758 10.9085C15.6893 11.4691 14.6206 12.0297 13.5695 12.581C13.5695 14.0098 13.5695 15.4263 13.5695 16.962C14.6965 16.2942 15.7602 15.6916 16.7867 15.0311C16.981 14.9061 17.1198 14.5539 17.1264 14.3024C17.1558 13.1774 17.1281 12.0509 17.1317 10.8547ZM9.16325 11.0226C9.16166 11.957 9.19817 12.8935 9.14664 13.8251C9.10401 14.596 9.39717 15.0789 10.0766 15.429C10.9601 15.8842 11.8076 16.4092 12.7368 16.9421C12.7368 15.4082 12.7368 13.9754 12.7368 12.567C12.4312 12.4143 12.1469 12.2756 11.8655 12.1312C11.0689 11.7225 10.2735 11.3114 9.43201 10.8473C9.3491 10.8732 9.2662 10.8991 9.16325 11.0226ZM7.07438 9.58126C6.99794 9.60564 6.9215 9.63002 6.82273 9.75149C6.82082 11.6911 6.8258 13.6307 6.81239 15.5702C6.80882 16.0867 7.02449 16.4407 7.4604 16.6909C9.14011 17.6552 10.8148 18.6283 12.4981 19.5861C12.9178 19.825 13.3707 19.8351 13.7971 19.5912C15.4938 18.6207 17.1978 17.6619 18.8674 16.6465C19.1516 16.4738 19.4466 16.0491 19.4537 15.7344C19.4994 13.7087 19.4664 11.6812 19.45 9.5708C19.3559 9.59364 19.2618 9.61648 19.0986 9.64537C18.6841 9.86433 18.2695 10.0833 17.9362 10.2593C17.9362 11.746 17.9937 13.1384 17.9018 14.5209C17.8735 14.9472 17.5324 15.4859 17.1705 15.7316C16.1255 16.4412 15.0129 17.0582 13.8916 17.6441C13.5512 17.822 13.0102 17.9559 12.7087 17.8083C11.528 17.2303 10.398 16.5455 9.26616 15.8721C8.68567 15.5266 8.35723 14.9816 8.34835 14.2985C8.33101 12.9645 8.34326 11.6302 8.34326 10.2364C7.97758 10.0574 7.55372 9.84999 7.07438 9.58126ZM14.4816 11.2003C15.1955 10.8165 15.9093 10.4327 16.6969 10.0092C15.5135 9.3253 14.4211 8.69118 13.3237 8.06591C13.2467 8.02206 13.1088 8.00172 13.0391 8.04104C11.9107 8.67722 10.7889 9.32483 9.59846 10.0084C10.5607 10.5249 11.4409 10.9979 12.3217 11.4699C12.4456 11.5363 12.5702 11.6473 12.6977 11.6521C13.0366 11.6648 13.3869 11.6738 13.7142 11.6013C13.9615 11.5464 14.1805 11.3636 14.4816 11.2003ZM16.3557 8.88894C17.1652 9.64032 17.9764 9.57103 18.7917 8.89704C18.857 8.84298 18.9389 8.80885 19.0594 8.73838C18.0062 8.13114 16.9889 7.53976 15.9646 6.96091C15.8504 6.89639 15.6829 6.85359 15.5625 6.88541C15.0369 7.02426 14.5197 7.19438 13.9994 7.35314C14.0042 7.41297 14.009 7.4728 14.0138 7.53263C14.773 7.97008 15.5323 8.40753 16.3557 8.88894ZM12.0044 7.303C11.4985 6.93853 10.9209 6.67302 10.3392 6.96853C9.29263 7.50028 8.2942 8.12682 7.23061 8.73971C7.4858 8.87956 7.69982 8.967 7.87935 9.10074C8.4532 9.52825 9.00502 9.65889 9.58499 9.10148C9.74496 8.94774 9.97661 8.86903 10.1742 8.75387C10.8768 8.34438 11.5789 7.93402 12.3161 7.50358C12.1905 7.41829 12.1325 7.37891 12.0044 7.303Z" fill="#FEF7FA"/>
</svg>
