<svg width="22" height="23" viewBox="0 0 22 23" fill="none" xmlns="http://www.w3.org/2000/svg">
<circle cx="10.9961" cy="11.1465" r="11" fill="black"/>
<path d="M13.4649 9.02891L14.141 9.82609C14.2184 9.9169 14.2857 9.98754 14.3159 10.0313C14.5178 10.2331 14.6321 10.5055 14.6321 10.7881C14.6119 11.1211 14.3967 11.3498 14.1948 11.5954L13.7206 12.1503L13.475 12.4396C13.4649 12.4497 13.4616 12.4632 13.4582 12.4766C13.4548 12.4901 13.4582 12.5035 13.4649 12.5136C13.4717 12.5271 13.4784 12.5372 13.4918 12.5439C13.5019 12.5506 13.5154 12.554 13.5288 12.554H15.9977C16.3745 12.554 16.8487 12.8702 16.8218 13.3512C16.8218 13.5698 16.731 13.7783 16.5763 13.9331C16.4182 14.0878 16.2063 14.1752 15.9843 14.1752H12.1161C11.8605 14.1752 11.1777 14.2022 10.986 13.6203C10.9456 13.4992 10.9389 13.368 10.9691 13.2435C11.0263 13.0585 11.1138 12.8836 11.2281 12.7289C11.4232 12.4396 11.6318 12.1537 11.8403 11.8745C12.1094 11.5079 12.3819 11.1547 12.6543 10.7814C12.6644 10.7679 12.6678 10.7544 12.6678 10.7376C12.6678 10.7208 12.661 10.7074 12.6543 10.6939L11.6721 9.54018C11.6654 9.53345 11.6587 9.52672 11.6486 9.52C11.6385 9.51663 11.6284 9.51327 11.6183 9.51327C11.6082 9.51327 11.5981 9.51663 11.588 9.52C11.5779 9.52336 11.5712 9.53009 11.5645 9.54018C11.3021 9.89 10.1484 11.4406 9.90286 11.7568C9.65732 12.0696 9.05187 12.0898 8.71551 11.7568L7.17833 10.2364C7.16824 10.2264 7.15479 10.2196 7.14133 10.2163C7.12788 10.2129 7.11442 10.2163 7.10097 10.2196C7.08751 10.2264 7.07742 10.2331 7.0707 10.2465C7.06397 10.2566 7.05724 10.2701 7.06061 10.2835V13.2065C7.06397 13.4151 7.00342 13.6169 6.88233 13.7884C6.76124 13.96 6.59306 14.0878 6.39461 14.1584C6.26679 14.2022 6.13225 14.2156 6.00107 14.1954C5.86988 14.1752 5.74207 14.1282 5.63443 14.0508C5.52343 13.9734 5.43598 13.8725 5.37543 13.7548C5.31489 13.6371 5.28125 13.5059 5.28125 13.3747V8.11737C5.29134 7.92901 5.35861 7.74737 5.4797 7.59601C5.60079 7.44801 5.76225 7.34037 5.94725 7.28992C6.10534 7.24955 6.27352 7.24955 6.43161 7.28992C6.5897 7.33364 6.73433 7.41437 6.85206 7.5321L9.21669 9.86309C9.22341 9.86981 9.23351 9.87654 9.24023 9.8799C9.25032 9.88327 9.26041 9.88327 9.2705 9.88327C9.2806 9.88327 9.29069 9.8799 9.29741 9.87318C9.3075 9.86981 9.31423 9.86309 9.32096 9.853L10.9994 7.56237C11.0768 7.46819 11.1743 7.39419 11.2853 7.34373C11.3963 7.29328 11.5174 7.26301 11.6385 7.26301H16.0045C16.1256 7.26301 16.2433 7.28992 16.3509 7.33701C16.4586 7.38746 16.5561 7.4581 16.6368 7.54555C16.7142 7.63301 16.7747 7.73728 16.8084 7.85164C16.842 7.966 16.8521 8.08373 16.8353 8.20146C16.805 8.40328 16.7007 8.58827 16.5427 8.71946C16.3846 8.85064 16.1827 8.92464 15.9742 8.92127H13.5288C13.5154 8.92127 13.5053 8.92464 13.4952 8.93136C13.4851 8.93809 13.475 8.94818 13.4717 8.95827C13.4649 8.96836 13.4649 8.98182 13.4649 8.99191C13.4548 9.00536 13.4582 9.01882 13.4649 9.02891Z" fill="url(#paint0_linear_12362_8929)"/>
<defs>
<linearGradient id="paint0_linear_12362_8929" x1="5.29057" y1="11.2411" x2="16.5438" y2="11.2411" gradientUnits="userSpaceOnUse">
<stop stop-color="#B12D6D"/>
<stop offset="1" stop-color="#A929E7"/>
</linearGradient>
</defs>
</svg>
