<svg width="27" height="27" viewBox="0 0 27 27" fill="none" xmlns="http://www.w3.org/2000/svg">
<circle cx="13.1465" cy="13.1465" r="13.1465" fill="white"/>
<g clip-path="url(#clip0_6503_5147)">
<path d="M13.2046 1.49689C6.7309 1.44998 1.4534 6.72748 1.50031 13.2012C1.54722 19.5107 6.70744 24.6475 13.017 24.7179C19.5142 24.7648 24.7917 19.4873 24.7213 13.0136C24.6744 6.70402 19.5142 1.5438 13.2046 1.49689Z" fill="#2081E2"/>
<path d="M9.72934 7.4541C10.4565 8.36887 10.8787 9.51819 10.8787 10.7848C10.8787 11.8637 10.5503 12.8723 10.0108 13.7167H6.11719L9.72934 7.4541Z" fill="white"/>
<path d="M21.6217 15.1008C21.6217 15.1477 21.5983 15.1946 21.5514 15.2181C21.2934 15.3353 20.4255 15.7341 20.0502 16.2501C19.112 17.5402 18.4083 19.6042 16.8134 19.6042H10.1285C7.75952 19.6042 5.78925 17.7278 5.81271 15.2415C5.81271 15.1711 5.85962 15.1242 5.92998 15.1242H9.07303C9.1903 15.1242 9.26067 15.2181 9.26067 15.3119V15.9217C9.26067 16.2501 9.51868 16.5081 9.84706 16.5081H12.2395V15.1242H10.5976C11.5359 13.928 12.0988 12.4269 12.0988 10.785C12.0988 8.95543 11.3951 7.29009 10.2458 6.04695C10.9495 6.11731 11.6062 6.25805 12.2161 6.44569V6.04695C12.2161 5.6482 12.5444 5.31982 12.9432 5.31982C13.3419 5.31982 13.6703 5.6482 13.6703 6.04695V6.98517C15.8986 8.01721 17.3763 9.75292 17.3763 11.7232C17.3763 12.8725 16.8837 13.9515 16.0159 14.8428C15.8517 15.007 15.6171 15.1008 15.3826 15.1008H13.6938V16.4847H15.8048C16.2504 16.4847 17.0714 15.6168 17.4701 15.1008C17.4701 15.1008 17.4936 15.0773 17.5405 15.0539C17.5874 15.0304 21.4341 14.1626 21.4341 14.1626C21.5045 14.1391 21.5983 14.2095 21.5983 14.2798L21.6217 15.1008Z" fill="white"/>
</g>
<defs>
<clipPath id="clip0_6503_5147">
<rect width="23.4555" height="23.4555" fill="white" transform="translate(1.37891 1.37939)"/>
</clipPath>
</defs>
</svg>
